<svg width="40" height="40" viewBox="0 0 40 40" fill="none" xmlns="http://www.w3.org/2000/svg">
<circle cx="20" cy="20" r="20" fill="#7294C7"/>
<path d="M29.8061 25.1154C29.8061 25.0324 29.723 25.0324 29.723 24.9493C29.3909 24.2851 28.6437 23.4549 27.6475 22.5417C27.1493 22.1266 26.9002 21.7945 26.7342 21.6284C26.4851 21.2963 26.4851 21.0473 26.5682 20.7152C26.6512 20.4661 26.9833 20.051 27.5644 19.3038C27.8965 18.8887 28.0626 18.6396 28.3116 18.3905C29.557 16.7301 30.1381 15.6508 29.9721 15.1526L29.8891 15.0696C29.8061 14.9866 29.723 14.9036 29.557 14.9036C29.3909 14.8205 29.1419 14.8205 28.8928 14.9036H25.7379C25.6549 14.9036 25.6549 14.9036 25.4888 14.9036C25.4058 14.9036 25.3228 14.9036 25.3228 14.9036H25.2398H25.1568L25.0737 14.9866C24.9907 15.0696 24.9907 15.0696 24.9907 15.1526C24.6586 16.0659 24.2435 16.8131 23.8284 17.6433C23.5793 18.0584 23.3303 18.4735 23.0812 18.8056C22.8321 19.1377 22.6661 19.3868 22.5 19.5528C22.334 19.7189 22.1679 19.8019 22.0849 19.968C22.0019 20.051 21.8358 20.134 21.8358 20.051C21.7528 20.051 21.6698 20.051 21.6698 19.968C21.5868 19.8849 21.5037 19.8019 21.4207 19.7189C21.3377 19.6359 21.3377 19.4698 21.2547 19.3038C21.2547 19.1377 21.2547 18.9717 21.2547 18.8887C21.2547 18.8056 21.2547 18.5566 21.2547 18.3905C21.2547 18.1415 21.2547 17.9754 21.2547 17.8924C21.2547 17.6433 21.2547 17.3112 21.2547 16.9791C21.2547 16.647 21.2547 16.398 21.2547 16.2319C21.2547 16.0659 21.2547 15.8168 21.2547 15.6508C21.2547 15.4017 21.2547 15.2356 21.2547 15.1526C21.2547 15.0696 21.1717 14.9036 21.1717 14.8205C21.0886 14.7375 21.0056 14.6545 20.9226 14.5715C20.8396 14.4884 20.6735 14.4884 20.5905 14.4054C20.1754 14.3224 19.6772 14.2394 19.0961 14.2394C17.7677 14.2394 16.8545 14.3224 16.5224 14.4885C16.3563 14.5715 16.1903 14.6545 16.1072 14.8205C15.9412 14.9866 15.9412 15.0696 16.0242 15.0696C16.4393 15.1526 16.7714 15.3187 16.9375 15.5677L17.0205 15.7338C17.1035 15.8168 17.1035 15.9829 17.1865 16.2319C17.2696 16.481 17.2696 16.7301 17.2696 17.0622C17.2696 17.5603 17.2696 18.0584 17.2696 18.3905C17.2696 18.8056 17.1865 19.0547 17.1865 19.3038C17.1865 19.5528 17.1035 19.7189 17.0205 19.8019C16.9375 19.968 16.9375 20.051 16.8545 20.051C16.8545 20.051 16.8544 20.134 16.7714 20.134C16.6884 20.134 16.6054 20.217 16.4393 20.217C16.3563 20.217 16.1903 20.134 16.1072 20.051C15.9412 19.968 15.7752 19.8019 15.6921 19.6359C15.5261 19.4698 15.36 19.2207 15.194 18.8887C15.0279 18.5566 14.7789 18.2245 14.6128 17.7263L14.4468 17.3943C14.3638 17.2282 14.1977 16.8961 14.0317 16.481C13.8656 16.0659 13.6996 15.7338 13.5335 15.3187C13.4505 15.1526 13.3675 15.0696 13.2845 14.9866H13.2014C13.2014 14.9866 13.1184 14.9036 13.0354 14.9036C12.9524 14.9036 12.8693 14.8205 12.7863 14.8205H9.79749C9.4654 14.8205 9.29935 14.9036 9.21633 14.9866L9.1333 15.0696C9.1333 15.0696 9.1333 15.1526 9.1333 15.2357C9.1333 15.3187 9.13331 15.4017 9.21633 15.5677C9.63144 16.564 10.1296 17.5603 10.6277 18.5566C11.1259 19.4698 11.624 20.3001 11.9561 20.8812C12.3712 21.4624 12.7033 22.0435 13.1184 22.5417C13.5335 23.0398 13.7826 23.3719 13.8656 23.5379C14.0317 23.704 14.1147 23.787 14.1977 23.87L14.4468 24.1191C14.6128 24.2851 14.8619 24.5342 15.194 24.7833C15.5261 25.0324 15.9412 25.2814 16.3563 25.5305C16.7714 25.7796 17.2696 25.9456 17.7677 26.1117C18.3489 26.2777 18.847 26.3607 19.3451 26.2777H20.5905C20.8396 26.2777 21.0056 26.1947 21.1717 26.0286L21.2547 25.9456C21.2547 25.8626 21.3377 25.8626 21.3377 25.7796C21.3377 25.6965 21.3377 25.6135 21.3377 25.4475C21.3377 25.1154 21.3377 24.8663 21.4207 24.6172C21.5037 24.3682 21.5038 24.2021 21.5868 24.0361C21.6698 23.87 21.7528 23.787 21.8358 23.704C21.9189 23.621 22.0019 23.5379 22.0019 23.5379H22.0849C22.2509 23.4549 22.5 23.5379 22.6661 23.704C22.9151 23.87 23.1642 24.1191 23.3302 24.3682C23.4963 24.6172 23.7454 24.8663 24.0775 25.1984C24.4096 25.5305 24.6586 25.7796 24.8247 25.8626L25.0737 26.0286C25.2398 26.1117 25.4058 26.1947 25.6549 26.2777C25.904 26.3607 26.07 26.3607 26.236 26.3607L29.0589 26.2777C29.3079 26.2777 29.557 26.1947 29.723 26.1117C29.8891 26.0286 29.9721 25.9456 29.9721 25.7796C29.9721 25.6965 29.9721 25.5305 29.9721 25.4475C29.806 25.2814 29.8061 25.1984 29.8061 25.1154Z" fill="white"/>
</svg>
